<mxfile host="app.diagrams.net" modified="2021-08-11T02:46:24.937Z" agent="5.0 (Windows NT 10.0; Win64; x64) AppleWebKit/537.36 (KHTML, like Gecko) Chrome/92.0.4515.131 Safari/537.36" etag="iQ_onawJQWCkbYD4guDk" version="14.9.5" type="github" pages="2">
  <diagram id="FuAi5qy7k0ua61_MD0ds" name="Page-1">
    <mxGraphModel dx="2062" dy="1122" grid="1" gridSize="10" guides="1" tooltips="1" connect="1" arrows="1" fold="1" page="1" pageScale="1" pageWidth="827" pageHeight="1169" math="0" shadow="0">
      <root>
        <mxCell id="0" />
        <mxCell id="1" parent="0" />
      </root>
    </mxGraphModel>
  </diagram>
  <diagram id="X92dEDuMwnZQnv0kZHer" name="Page-2">
    <mxGraphModel dx="2062" dy="1122" grid="1" gridSize="10" guides="1" tooltips="1" connect="1" arrows="1" fold="1" page="1" pageScale="1" pageWidth="827" pageHeight="1169" math="0" shadow="0">
      <root>
        <mxCell id="Q-8aLvnSPxqnk-BvdPLs-0" />
        <mxCell id="Q-8aLvnSPxqnk-BvdPLs-1" parent="Q-8aLvnSPxqnk-BvdPLs-0" />
      </root>
    </mxGraphModel>
  </diagram>
</mxfile>
